<svg xmlns="http://www.w3.org/2000/svg" width="76" height="76" fill="none"><path fill="#83B3D3" d="M67.6 22.4625H42.8c13.8-6.9049 14.9-11.3079 14.4-13.7096-1.2-4.0028-5.7-7.005-10-5.4038-5.6 2.1015-7.1 10.4073-8.6 16.4115-2-6.1043-3.8-13.8097-8.2-17.7124C29.1.9474 27.3-.2534 24.6.0468c-4 .4003-9.8 5.4038-7.5 11.0077 2.3 5.4038 9.7 8.8062 14.6 11.5081H9.4c-1.6 0-2.9 1.3009-2.9 2.902v11.3079c0 1.6011 1.3 2.902 2.9 2.902h.3V76h57.8V39.5745h.1c1.6 0 2.9-1.3009 2.9-2.9021V25.3645c0-1.6011-1.3-2.902-2.9-2.902ZM48.9 5.8508c2.1-.3002 5 1.301 5.3 3.2023.4 2.802-3.4 5.3037-5.1 6.4045-2.5 1.7012-4.9 2.6018-7.3 4.1028.9-3.7025 2.5-13.009 7.1-13.7096ZM26 15.858c-2.2-1.5011-6.5-4.4031-6.4-7.8055.1-3.6025 5.7-6.6046 8.8-3.9028 3.9 3.4024 5.7 11.1078 7.1 16.6117-3.2-1.5011-6.3-2.802-9.5-4.9034Zm6 57.14H12.6V39.5745H32v33.4234Zm0-36.5256H9.5V25.4646H32v11.0077Zm10.2 0v36.5256H35V25.5647h7.2v10.9076Zm22.3 36.5256H45.1V39.5745h19.4v33.4234Zm2.9-36.5256H45.1V25.4646h22.3v11.0077Z"/></svg>